<svg width="100" height="100" xmlns="http://www.w3.org/2000/svg">
 <!-- Created with Method Draw - http://github.com/duopixel/Method-Draw/ -->
 <g>
  <title>background</title>
  <rect fill="none" id="canvas_background" height="102" width="102" y="-1" x="-1"/>
 </g>
 <g>
  <title>Layer 1</title>
  <path transform="translate(21.5,16.5) scale(0.005) translate(-21.5,-16.5)" id="svg_2" d="m43.289577,66.09172c0.280852,0.23331 0.875212,-0.208572 1.163968,-0.263171c-0.325,-0.530324 0.899158,-3.113963 0.476658,-4.052228c-0.13,-2.121295 -3.420585,-6.909678 -3.834999,-7.465327c0.15808,-0.37263 1.929667,-0.02588 1.876783,0.027577c-0.739284,0.747512 2.494725,5.037521 2.868215,7.519338c0.688194,-0.047811 1.592161,-0.371455 1.993341,0.163177c0.374634,-0.513843 3.265287,-4.439936 3.423315,-7.832474c0.022646,-0.486168 1.591537,-0.178483 1.296412,0.117846c-0.47307,2.112222 -3.809103,8.042646 -4.069727,8.258561c0.303316,1.849312 0.180518,1.976068 2.117907,3.414045c0.87191,-2.569867 2.729687,-4.751309 4.43123,-6.922471c1.921321,-2.437792 3.210765,-4.773175 5.327216,-7.310929c2.786133,-3.223683 6.344336,-6.165169 9.603227,-7.921079c2.267069,-1.221507 6.065512,-2.268676 6.647808,-2.33721c1.07874,-0.131455 2.054259,-0.108121 3.332913,0.130345c1.886689,0.351841 3.728893,0.548338 5.709728,1.715442c1.862561,1.497895 1.218698,3.375209 0.871416,5.133665c-2.868657,3.970836 -5.806786,8.726453 -6.732126,13.591692c-0.311116,1.801502 -0.870506,4.905838 -2.190733,6.85583c-2.122483,2.999479 -4.72009,2.888551 -7.16071,3.295155c1.487121,0.534468 3.100057,2.279609 4.547086,4.033267c2.257293,2.758304 3.357197,5.586969 2.774277,8.66647c-0.124098,0.645918 -2.276377,5.545131 -3.329091,7.082384c-3.995627,5.853567 -9.435345,9.823359 -13.819645,9.179072c-1.578849,-0.232004 -5.933848,-4.393006 -6.716838,-5.620812c-1.943733,-3.047942 -3.540289,-6.724342 -3.605913,-9.93409c-0.241618,-0.303019 -0.537108,-0.325407 -0.406822,-0.730802c-0.242112,0.928311 -1.010932,3.951451 -2.149133,5.86264c-1.645513,2.763036 -3.151797,-1.367289 -3.761497,-4.716814c-0.209014,-1.148208 -0.055614,-1.34699 -0.29939,-2.033571c-1.15271,0.548991 -0.545766,2.140811 -0.99814,3.426707c-0.383526,1.119783 -2.101111,4.540028 -2.575429,5.319751c-1.516189,2.492424 -4.92068,6.264054 -7.389717,7.169064c-2.291561,0.839968 -4.233761,0.722121 -6.07547,-0.463552c-2.375489,-1.529291 -5.723248,-5.081024 -7.782811,-7.968955c-2.607279,-3.573371 -4.8861,-8.942205 -2.717207,-12.723952c1.384344,-2.359598 3.990141,-5.87602 6.536502,-6.740105c-1.797483,-0.276323 -5.77439,-1.763318 -7.253373,-5.893545c-0.474708,-1.309492 -0.650806,-3.345511 -0.77155,-4.802253c-0.196456,-2.405026 -1.07068,-5.168193 -1.796391,-7.536309c-0.583388,-2.165026 -1.614495,-4.936743 -2.693599,-7.305414c-1.130896,-2.485668 -2.058055,-6.595824 -0.08996,-8.619768c0.687492,-0.707109 2.816241,-1.531836 3.261127,-1.590645c1.555137,-0.208442 3.673877,0.750155 5.246694,1.325255c1.030432,0.379908 5.5517,2.407507 6.802066,3.523928c8.243011,7.35998 14.104397,16.527826 17.912382,24.974268z" stroke-width="1.5" stroke="#005fbf" fill="#00ff00"/>
  <path transform="translate(185.5,97.5) scale(0.005) translate(-185.5,-97.5)" id="svg_4" d="m48.551358,69.772638c0.338463,0.254846 1.054742,-0.227825 1.40273,-0.287464c-0.391667,-0.579277 1.0836,-3.401406 0.574434,-4.42628c-0.156667,-2.317107 -4.122243,-7.547494 -4.621665,-8.154434c0.190507,-0.407027 2.325497,-0.028269 2.261765,0.030122c-0.890932,0.816513 3.006464,5.502523 3.456567,8.213431c0.829362,-0.052224 1.918759,-0.405743 2.402232,0.178239c0.451482,-0.561275 3.935089,-4.849776 4.125533,-8.555472c0.027291,-0.531045 1.918007,-0.194958 1.562342,0.128724c-0.57011,2.307197 -4.590457,8.785043 -4.904542,9.020889c0.365535,2.020018 0.217547,2.158474 2.55235,3.729187c1.050763,-2.807086 3.289623,-5.189892 5.340201,-7.561468c2.315439,-2.662819 3.869383,-5.213776 6.419979,-7.985784c3.357648,-3.521254 7.645738,-6.734261 11.57312,-8.652255c2.732109,-1.334261 7.30972,-2.478092 8.011461,-2.552953c1.30002,-0.143589 2.475646,-0.118101 4.016587,0.142377c2.273703,0.384319 4.493794,0.598954 6.880954,1.873791c2.244625,1.636163 1.468687,3.686767 1.050168,5.607541c-3.4571,4.337375 -6.997922,9.531972 -8.113075,14.84631c-0.374935,1.967794 -1.049071,5.358684 -2.640114,7.488676c-2.557864,3.276353 -5.688314,3.155187 -8.629573,3.599323c1.792172,0.583804 3.735966,2.490034 5.479822,4.405569c2.720328,3.012916 4.045853,6.102689 3.34336,9.466451c-0.149554,0.705541 -2.743326,6.056989 -4.011981,7.736143c-4.815242,6.393896 -11.3708,10.73013 -16.654445,10.026371c-1.902716,-0.25342 -7.151048,-4.798514 -8.094651,-6.139656c-2.342448,-3.32929 -4.266502,-7.345051 -4.345587,-10.851083c-0.291181,-0.33099 -0.647284,-0.355444 -0.490273,-0.798261c-0.291776,1.014002 -1.218302,4.3162 -2.589981,6.403806c-1.983055,3.018085 -3.798319,-1.4935 -4.533086,-5.152212c-0.251889,-1.254196 -0.067022,-1.471327 -0.360803,-2.221286c-1.389163,0.599667 -0.657718,2.338424 -1.202886,3.743019c-0.462198,1.223147 -2.532109,4.959108 -3.103722,5.810805c-1.827203,2.722494 -5.930051,6.842274 -8.905557,7.830823c-2.761625,0.917503 -5.102224,0.788779 -7.32172,-0.506341c-2.862769,-1.670456 -6.897248,-5.550041 -9.379286,-8.704551c-3.142106,-3.90322 -5.888377,-9.767639 -3.274583,-13.898471c1.668311,-2.577407 4.808631,-6.418422 7.877323,-7.362268c-2.166198,-0.30183 -6.95888,-1.926086 -8.741245,-6.437565c-0.572084,-1.430368 -0.784304,-3.654327 -0.929816,-5.245538c-0.236755,-2.627029 -1.290306,-5.645257 -2.164882,-8.231968c-0.703057,-2.364875 -1.945674,-5.392442 -3.246132,-7.97976c-1.362874,-2.715115 -2.480221,-7.20467 -0.108413,-9.415439c0.828516,-0.772381 3.393932,-1.673236 3.930076,-1.737474c1.87414,-0.227682 4.427493,0.8194 6.322939,1.447586c1.241802,0.414976 6.69051,2.629738 8.197361,3.849214c9.933885,8.039363 16.997607,18.053471 21.586717,27.279585z" stroke-width="1.5" stroke="#005fbf" fill="#00ff00"/>
  <path transform="translate(8.5,119.5) scale(0.005) translate(-8.5,-119.5)" id="svg_5" d="m48.655927,119.069812c0.460885,0.527639 1.436245,-0.471694 1.910101,-0.595172c-0.533333,-1.199348 1.475541,-7.042348 0.782208,-9.164271c-0.213333,-4.797391 -5.613267,-15.626503 -6.293331,-16.883124c0.259413,-0.842717 3.166633,-0.058528 3.07985,0.062366c-1.213184,1.690527 4.093908,11.392548 4.706814,17.005273c1.129344,-0.108126 2.612778,-0.84006 3.271124,0.36903c0.614784,-1.162076 5.358419,-10.041086 5.617747,-17.713442c0.037163,-1.099488 2.611754,-0.403645 2.127445,0.266513c-0.77632,4.776872 -6.250835,18.188753 -6.678526,18.677053c0.497749,4.182291 0.296235,4.468954 3.47554,7.720994c1.430826,-5.811854 4.479486,-10.745269 7.271763,-15.655435c3.152937,-5.513161 5.268947,-10.794719 8.742098,-16.533948c4.572116,-7.290484 10.411217,-13.942767 15.759141,-17.913825c3.720319,-2.762485 9.95366,-5.130698 10.909223,-5.285691c1.770239,-0.297291 3.371092,-0.244519 5.469395,0.294781c3.096106,0.795703 6.119208,1.240089 9.36981,3.879539c3.056511,3.387548 1.999914,7.633165 1.430015,11.60998c-4.70754,8.980198 -9.529084,19.73521 -11.047591,30.738136c-0.510549,4.074165 -1.428522,11.094741 -3.595049,15.504723c-3.483049,6.783436 -7.745789,6.53257 -11.750908,7.452119c2.440404,1.208721 5.087273,5.155423 7.461885,9.121389c3.704276,6.23801 5.509246,12.635146 4.55266,19.599554c-0.203648,1.460769 -3.735593,12.540526 -5.463123,16.017085c-6.556926,13.238067 -15.483642,22.215904 -22.678392,20.758825c-2.590932,-0.524687 -9.737596,-9.934953 -11.022503,-12.711683c-3.189716,-6.893038 -5.809705,-15.207359 -5.917395,-22.466327c-0.396501,-0.685289 -0.881408,-0.73592 -0.667605,-1.652738c-0.397312,2.099412 -1.658965,8.936358 -3.526783,13.258585c-2.70033,6.248712 -5.172179,-3.092177 -6.172712,-10.667256c-0.342997,-2.596717 -0.091264,-3.046269 -0.491306,-4.599c-1.891626,1.241565 -0.895616,4.841527 -1.637973,7.749631c-0.629376,2.532432 -3.447977,10.267449 -4.226345,12.030822c-2.488106,5.636712 -8.074962,14.166399 -12.126715,16.213113c-3.760511,1.899619 -6.947709,1.633106 -9.970002,-1.048341c-3.898239,-3.45855 -9.391997,-11.490931 -12.771793,-18.022099c-4.278612,-8.081315 -8.018216,-20.223141 -4.459006,-28.775708c2.271743,-5.336322 6.547923,-13.288846 10.726567,-15.243007c-2.949716,-0.624915 -9.475922,-3.987812 -11.902972,-13.328479c-0.779008,-2.961466 -1.067989,-7.566001 -1.266133,-10.86048c-0.322389,-5.43906 -1.757013,-11.688067 -2.947924,-17.043652c-0.957354,-4.896291 -2.649428,-11.164635 -4.420265,-16.521475c-1.855829,-5.621435 -3.377321,-14.916711 -0.147627,-19.493938c1.128192,-1.599155 4.621524,-3.464306 5.351593,-3.597305c2.55202,-0.471399 6.028926,1.696505 8.609959,2.997114c1.690965,0.859176 9.110482,5.444669 11.162364,7.969499c13.526992,16.644879 23.145677,37.378315 29.394677,56.480269z" stroke-width="1.5" stroke="#005fbf" fill="#00ff00"/>
  <path stroke="#005fbf" id="svg_6" d="m45.860121,46.956358c0.342063,0.312276 1.065963,-0.279166 1.417653,-0.352244c-0.395833,-0.709818 1.095128,-4.16792 0.580545,-5.423752c-0.158333,-2.839272 -4.166097,-9.248338 -4.670831,-9.992053c0.192533,-0.498751 2.350236,-0.034639 2.285826,0.036911c-0.90041,1.000516 3.038447,6.742528 3.493339,10.064345c0.838185,-0.063993 1.939171,-0.497178 2.427787,0.218406c0.456285,-0.687759 3.976952,-5.942683 4.169422,-10.483465c0.027582,-0.650717 1.938411,-0.238892 1.578963,0.157732c-0.576175,2.827129 -4.639291,10.764772 -4.956718,11.053766c0.369423,2.475234 0.219862,2.644891 2.579502,4.569568c1.061941,-3.439669 3.324619,-6.359445 5.397011,-9.265461c2.340071,-3.262891 3.910547,-6.388711 6.488276,-9.785398c3.393367,-4.314776 7.727075,-8.251841 11.696237,-10.602059c2.761174,-1.63494 7.387482,-3.036536 8.096688,-3.128266c1.313849,-0.175947 2.501982,-0.144716 4.059317,0.174462c2.297891,0.470926 4.5416,0.73393 6.954155,2.296054c2.268504,2.004875 1.484311,4.517587 1.06134,6.871213c-3.493877,5.314811 -7.072367,11.680022 -8.199383,18.191957c-0.378923,2.411241 -1.060231,6.566275 -2.668201,9.176265c-2.585076,4.014687 -5.748828,3.866215 -8.721376,4.410438c1.811238,0.715365 3.77571,3.051169 5.538118,5.398373c2.749267,3.691883 4.088893,7.477943 3.378927,11.599736c-0.151145,0.864536 -2.772511,7.421944 -4.054662,9.479499c-4.866468,7.834774 -11.491765,13.148187 -16.831618,12.285835c-1.922958,-0.310529 -7.227122,-5.87987 -8.180763,-7.52324c-2.367367,-4.079553 -4.31189,-9.000273 -4.391816,-13.296397c-0.294278,-0.405579 -0.65417,-0.435544 -0.495488,-0.978151c-0.29488,1.242509 -1.231263,5.288865 -2.617534,7.846917c-2.004151,3.698217 -3.838727,-1.830064 -4.58131,-6.313274c-0.254568,-1.536832 -0.067735,-1.802894 -0.364642,-2.721857c-1.403941,0.734804 -0.664715,2.865393 -1.215683,4.586516c-0.467115,1.498786 -2.559046,6.076653 -3.13674,7.120282c-1.846641,3.336013 -5.993136,8.384195 -9.000296,9.595516c-2.791004,1.124264 -5.156503,0.966532 -7.39961,-0.620446c-2.893224,-2.046897 -6.970622,-6.800755 -9.479064,-10.66614c-3.175532,-4.782819 -5.951019,-11.968798 -3.309419,-17.03052c1.686059,-3.158231 4.859786,-7.864827 7.961123,-9.021371c-2.189242,-0.369848 -7.03291,-2.360134 -8.834236,-7.888283c-0.57817,-1.752704 -0.792648,-4.477837 -0.939708,-6.427631c-0.239273,-3.219035 -1.304033,-6.917427 -2.187912,-10.087059c-0.710536,-2.897805 -1.966373,-6.607641 -3.280665,-9.778015c-1.377373,-3.326971 -2.506606,-8.828257 -0.109567,-11.537228c0.83733,-0.946439 3.430037,-2.050304 3.971885,-2.129017c1.894078,-0.278991 4.474593,1.004054 6.390204,1.773802c1.255013,0.508492 6.761685,3.222355 8.284567,4.716642c10.039564,9.85105 17.178431,22.121859 21.816361,33.427097z" stroke-width="2" fill="#ffffff"/>
 </g>
</svg>