<svg width="180" height="235" xmlns="http://www.w3.org/2000/svg">
 <style><![CDATA[
    .sprite_back { display: none; }
    .sprite_back:target { display: inline;}
  ]]></style>
 
  <g id="animals" class="sprite_back">
   <rect stroke="#333333" rx="10" id="svg_1" height="230.000005" width="171" y="3.99999" x="4.5" opacity="null" stroke-opacity="null" stroke-width="null" fill="#00ff00"/>
   <path id="svg_3" d="m107.25068,191.290225c-3.609933,-4.649689 -9.223535,-5.179919 -10.573376,-11.798145c-1.058006,-3.599777 -11.032063,-8.427789 -5.128938,-1.966684c4.558257,3.893408 9.973751,18.254143 -1.240527,13.716855c-8.529298,-2.947796 -8.89504,-12.050316 -11.181298,-18.865051c-7.43475,-4.857547 1.922201,-15.128476 -6.08291,-21.352275c-6.794072,-6.496905 -2.062427,-18.664647 -11.770589,-23.27131c-4.872851,-1.862467 -6.982048,10.997009 -7.802504,1.589461c-2.669624,-9.514789 -12.098029,4.625225 -18.385152,3.126161c-5.073347,-0.415335 8.486396,-3.736764 2.015614,-4.630591c-3.804325,1.961201 -7.324244,5.352236 -7.926118,-0.260933c-4.576376,-2.559525 -14.173132,-6.646984 -13.923837,-10.713033c3.974114,-1.175663 17.390271,2.226181 15.065303,-2.500592c-3.989502,-1.425787 -4.714215,-5.323267 0.172138,-2.707544c9.629637,0.284471 20.918312,-3.335367 28.930783,3.587974c4.179332,2.421654 8.2886,11.10691 10.526001,2.666467c7.212332,-8.191902 21.765651,-8.885783 26.211722,-19.492245c1.075893,-5.13154 -3.304335,-8.059233 -7.025475,-9.098661c-0.723951,-1.686408 -1.956344,-8.846265 -5.033476,-5.233175c0.140251,-3.162308 3.026758,-10.724505 -3.36696,-7.376718c-0.648499,-6.735522 5.465829,-13.455353 -2.622605,-18.360242c7.57843,1.323911 6.083998,-6.812247 4.433345,-8.102611c4.492427,-0.600724 9.764502,-4.407718 7.287534,-9.123936c4.878656,8.340668 5.04782,-10.118773 9.064392,-2.162199c7.392523,1.141298 -2.296585,-6.219653 4.502724,-4.576664c3.882481,0.125103 3.020198,-4.006068 6.507998,-0.888132c4.616047,-2.371864 -3.538655,-9.540023 3.914444,-4.559503c2.505464,2.049757 10.482156,7.418372 9.050954,0.334009c7.082108,7.114315 12.655358,-6.607989 18.540315,-9.449744c2.334282,-2.629872 7.410378,-5.413093 2.728888,-0.392954c-3.107901,6.39913 -13.651964,13.32163 -10.815286,19.680094c-2.567639,2.201329 5.180599,4.968018 -0.987321,4.134625c-3.654053,3.714455 4.898898,10.663971 5.581465,16.509949c-1.959149,4.005533 -9.419127,8.552875 -12.436876,8.40915c1.102957,-5.157127 -1.288102,-11.878858 -8.271949,-8.963832c3.912213,6.74107 9.20147,13.180919 12.515376,20.511711c3.239105,7.206519 8.490757,15.52859 15.400034,6.253793c4.403775,-5.911365 16.984269,-5.825793 13.528512,3.774288c-1.766595,9.426998 2.963115,21.868739 -6.124912,28.362385c-5.482398,9.948575 -11.560372,-3.699094 -7.253159,-8.862126c-1.097522,-1.475431 -1.946573,-2.516947 1.265055,-4.533763c-0.66315,-1.512825 9.242528,-7.204471 4.250104,-10.696953c-5.678064,6.063338 -13.986387,13.081678 -11.677407,22.094748c1.87399,6.039846 -13.581772,16.394612 -12.345843,6.370925c0.27684,-3.895544 6.182852,-11.445544 4.823365,-12.418214c-4.311924,7.618965 -10.445845,14.938608 -19.714825,17.200689c-7.709972,0.430261 -11.748767,6.276227 -8.087447,12.762389c0.69971,9.191182 -4.452274,17.509659 -5.638386,26.458571c2.20484,9.491497 15.628512,11.409491 17.450578,21.091544c3.130873,6.502471 -4.70067,5.541509 -8.349482,3.722032l0.000019,0.000006l-0.000002,0.000002l-0.000003,0.000002zm-19.089598,-28.316201c-1.130121,-4.290446 -3.455825,11.153047 -0.588973,2.956268l0.429174,-1.448144l0.159799,-1.50813l0,0.000006z" stroke-opacity="null" fill="#4c4c4c" stroke="#333333"/>
   <text fill="#ff0000" stroke="#333333" stroke-width="0.5" stroke-opacity="null" fill-opacity="null" x="31.5" y="219" id="svg_2" font-size="24" font-family="'Palatino Linotype', 'Book Antiqua', Palatino, serif" text-anchor="start" xml:space="preserve" font-weight="bold">ANIMALS</text>
  </g>
  <g id="numbers" class="sprite_back">
   <rect stroke="#333333" rx="10" id="svg_1" height="230.000005" width="171" y="3.99999" x="4.5" opacity="null" stroke-opacity="null" stroke-width="null" fill="#ffff00"/>
   <text stroke="#00ff00" transform="matrix(13.744793753864082,0,0,8.774154964456166,-1152.8199880092247,-2022.3869272435725) " xml:space="preserve" text-anchor="start" font-family="'Palatino Linotype', 'Book Antiqua', Palatino, serif" font-size="20" id="svg_4" y="248.941231" x="85.647173" stroke-width="0.5" fill="#00bf00">1</text>
   <text fill="#ff0000" stroke="#333333" stroke-width="0.5" stroke-opacity="null" fill-opacity="null" x="28.5" y="219" id="svg_2" font-size="24" font-family="'Palatino Linotype', 'Book Antiqua', Palatino, serif" text-anchor="start" xml:space="preserve" font-weight="bold">NUMBERS</text>
  </g>
  <g id="family" class="sprite_back">
   <rect opacity="null" fill="#00bfbf" stroke-width="null" stroke-opacity="null" x="4.5" y="3.99999" width="171" height="230.000005" id="svg_1" rx="10" stroke="#333333"/>
   <path fill="#ff007f" stroke="#333333" stroke-width="null" stroke-opacity="null" d="m159.711174,121.359774c-3.009079,-6.270092 -6.694783,-11.344749 -10.389925,-14.892415c-4.3116,3.638716 -9.562942,5.85217 -15.293641,5.85217c-5.734362,0 -10.993265,-2.220039 -15.299269,-5.85217c-3.695137,3.54766 -7.380809,8.622323 -10.401221,14.892415c-7.004972,14.550157 -7.779311,29.477068 -1.729169,33.349637c2.710264,1.743459 5.553999,0.441856 8.489788,-2.815609c-0.516876,3.302911 -0.823246,6.885222 -0.823246,10.634295c0,16.646727 5.612234,30.131154 12.53077,30.131154c4.166883,0 6.232502,-4.912031 7.222942,-12.429674c0.990482,7.517643 3.054172,12.429674 7.211761,12.429674c6.927863,0 12.540079,-13.484427 12.540079,-30.131154c0,-3.749073 -0.300692,-7.331383 -0.826937,-10.634295c2.945176,3.257465 5.783224,4.559068 8.499102,2.815609c6.059611,-3.872574 5.275803,-18.79948 -1.731033,-33.349637l-0.000001,0zm-25.689184,-14.716872c11.643607,0 21.082497,-10.879091 21.082497,-24.294302s-9.43889,-24.294223 -21.082497,-24.294223c-11.641734,0 -21.08817,10.876822 -21.08817,24.294223s9.446432,24.294302 21.08817,24.294302zm14.402728,-49.866389c6.083985,2.581704 2.422672,-4.117301 2.422672,-8.693708s3.75529,-10.172969 -2.422672,-7.896619c-6.484337,2.39536 -11.741344,3.712217 -11.741344,8.295108s5.257011,5.540268 11.741344,8.295219zm-14.363249,-3.25957c3.853004,0 1.700959,-2.248152 1.700959,-5.018278c0,-2.772258 2.157682,-5.013946 -1.700959,-5.013946s-1.841952,2.248168 -1.841952,5.013946c0,2.776595 -2.011111,5.018278 1.841952,5.018278zm-14.445967,3.25957c6.484341,-2.748503 11.741302,-3.714454 11.741302,-8.295219s-5.256961,-5.899748 -11.741302,-8.295108c-6.177971,-2.28284 -2.424582,3.315828 -2.424582,7.896619s-3.665053,11.271058 2.424582,8.693708z" id="svg_7"/>
   <path fill="#00ff00" stroke="#333333" stroke-width="null" stroke-opacity="null" d="m92.980808,116.601278c-3.871721,-7.124501 -8.608495,-12.892529 -13.359817,-16.927489c-5.544046,4.135856 -12.296394,6.654286 -19.657766,6.654286c-7.375826,0 -14.137887,-2.523338 -19.672158,-6.654286c-4.751311,4.034959 -9.492924,9.802987 -13.374148,16.927489c-9.009675,16.54105 -10.000519,33.507948 -2.218684,37.907238c3.485034,1.98174 7.139041,0.504665 10.914044,-3.20043c-0.662187,3.756734 -1.048891,7.828546 -1.048891,12.087548c0,18.921657 7.216438,34.248987 16.109912,34.248987c5.360396,0 8.013952,-5.581025 9.289926,-14.125999c1.271267,8.544973 3.924801,14.125999 9.26577,14.125999c8.908089,0 16.124593,-15.32733 16.124593,-34.248987c0,-4.259008 -0.386832,-8.330814 -1.063412,-12.087548c3.784583,3.705095 7.433784,5.18217 10.928492,3.20043c7.777045,-4.399291 6.771569,-21.366194 -2.237855,-37.907238l-0.000006,0zm-33.027096,-16.728098c14.964319,0 27.101164,-12.363257 27.101164,-27.614264s-12.136844,-27.614298 -27.101164,-27.614298c-14.96941,0 -27.11584,12.365717 -27.11584,27.614298s12.14643,27.614264 27.11584,27.614264z" id="svg_8"/>
   <text fill="#ff0000" stroke="#333333" stroke-width="0.5" stroke-opacity="null" x="48.5" y="225" id="svg_9" font-size="24" font-family="'Palatino Linotype', 'Book Antiqua', Palatino, serif" text-anchor="start" xml:space="preserve" font-weight="bold">FAMILY</text>
  </g>

</svg>