<svg width="100" height="100" xmlns="http://www.w3.org/2000/svg">
<defs>

  <style><![CDATA[
    .sprite { display: none; }
    .sprite:target { display: inline;
 transform: scale(0.5)}

  ]]></style>

</defs>
    <g id="muteMusic" class="sprite">
  <path stroke="#bf0000" id="svg_1" d="m48.624083,95.709107c-11.152874,-1.020772 -17.174725,-10.562778 -6.03072,-14.058173c11.617354,-3.446505 18.526673,8.822925 5.836863,10.022177c-6.948563,1.498814 9.021593,4.008771 11.998147,1.488528c9.300681,-2.591965 7.863956,-9.338095 5.626259,-14.089193c-0.77657,-3.639811 -1.747719,-7.536546 -9.723752,-5.467924c-19.242837,0.891421 -34.477385,-10.348597 -32.947152,-20.863592c0.51952,-9.917979 14.629231,-16.710967 25.077126,-23.598284c-3.430068,-9.010335 -4.465747,-19.419741 5.477695,-27.27156c9.159067,-6.382666 13.807989,5.297092 15.357285,9.260346c3.441382,9.264099 -3.420445,18.999194 -14.838402,25.5296c1.090243,3.097631 2.16295,6.197334 3.274012,9.292516c12.065899,-1.341293 23.583357,4.529008 24.241465,11.40496c1.864373,6.209089 -5.052421,12.07279 -14.50006,14.741279c-0.155351,5.331821 4.961504,10.862514 3.122947,16.368388c-1.765662,5.692582 -12.85366,8.484063 -21.971708,7.240934l-0.000006,0zm12.596392,-24.291777c3.418464,-3.694673 -2.782149,-10.219732 -3.122589,-14.962303c0.133893,-8.27003 -15.101847,1.601987 -10.571067,5.663205c1.343062,2.403121 13.00059,6.810068 2.292227,4.092128c-11.179815,-3.852571 -10.667753,-13.765038 -0.452613,-17.950379c8.570138,-1.093002 3.335823,-7.677675 1.720996,-9.840504c-10.525953,5.523277 -22.456667,12.478189 -20.641353,21.417656c1.367412,8.378922 17.231718,13.461849 30.774399,11.5802l0,-0.000003zm7.082311,-1.599333c10.039271,-3.710794 9.709797,-13.449507 -1.273894,-16.469998c-11.719657,-3.565554 -3.692439,5.775598 -3.4777,9.331172c1.626448,1.361119 0.70513,9.292201 4.751594,7.138827zm-12.372852,-44.640183c6.175423,-4.301313 13.234598,-10.511082 8.897631,-16.197987c-9.339635,-3.549688 -14.529743,6.04739 -14.759437,10.24974c-0.084969,2.724898 -0.782411,12.117157 5.861812,5.948247l0,0l-0.000006,0z" stroke-width="1.5" fill="#ffffff"/>
  <line stroke-linecap="null" stroke-linejoin="null" id="svg_2" y2="96" x2="98.5" y1="5" x1="7.5" stroke-width="2.5" stroke="#bf0000" fill="none"/>
  <line transform="rotate(-90.51155853271484 51.00000000000001,50.5) " stroke="#bf0000" stroke-linecap="null" stroke-linejoin="null" id="svg_3" y2="96" x2="96.5" y1="5" x1="5.5" stroke-width="2.5" fill="none"/>
  </g>
  <g id="Music" class="sprite">
  <path stroke="#bf0000" id="svg_1" d="m48.624083,95.709107c-11.152874,-1.020772 -17.174725,-10.562778 -6.03072,-14.058173c11.617354,-3.446505 18.526673,8.822925 5.836863,10.022177c-6.948563,1.498814 9.021593,4.008771 11.998147,1.488528c9.300681,-2.591965 7.863956,-9.338095 5.626259,-14.089193c-0.77657,-3.639811 -1.747719,-7.536546 -9.723752,-5.467924c-19.242837,0.891421 -34.477385,-10.348597 -32.947152,-20.863592c0.51952,-9.917979 14.629231,-16.710967 25.077126,-23.598284c-3.430068,-9.010335 -4.465747,-19.419741 5.477695,-27.27156c9.159067,-6.382666 13.807989,5.297092 15.357285,9.260346c3.441382,9.264099 -3.420445,18.999194 -14.838402,25.5296c1.090243,3.097631 2.16295,6.197334 3.274012,9.292516c12.065899,-1.341293 23.583357,4.529008 24.241465,11.40496c1.864373,6.209089 -5.052421,12.07279 -14.50006,14.741279c-0.155351,5.331821 4.961504,10.862514 3.122947,16.368388c-1.765662,5.692582 -12.85366,8.484063 -21.971708,7.240934l-0.000006,0zm12.596392,-24.291777c3.418464,-3.694673 -2.782149,-10.219732 -3.122589,-14.962303c0.133893,-8.27003 -15.101847,1.601987 -10.571067,5.663205c1.343062,2.403121 13.00059,6.810068 2.292227,4.092128c-11.179815,-3.852571 -10.667753,-13.765038 -0.452613,-17.950379c8.570138,-1.093002 3.335823,-7.677675 1.720996,-9.840504c-10.525953,5.523277 -22.456667,12.478189 -20.641353,21.417656c1.367412,8.378922 17.231718,13.461849 30.774399,11.5802l0,-0.000003zm7.082311,-1.599333c10.039271,-3.710794 9.709797,-13.449507 -1.273894,-16.469998c-11.719657,-3.565554 -3.692439,5.775598 -3.4777,9.331172c1.626448,1.361119 0.70513,9.292201 4.751594,7.138827zm-12.372852,-44.640183c6.175423,-4.301313 13.234598,-10.511082 8.897631,-16.197987c-9.339635,-3.549688 -14.529743,6.04739 -14.759437,10.24974c-0.084969,2.724898 -0.782411,12.117157 5.861812,5.948247l0,0l-0.000006,0z" stroke-width="1.5" fill="#ffffff"/>
   </g>

 <g id="muteSound" class="sprite">
  <path stroke="#bf0000" id="svg_1" d="m7.462484,35.400782l0,35.004434l21.017913,0l31.463745,24.497784l0.018703,-84.000001l-31.468421,24.497784l-21.03194,0zm64.564035,-4.025333c-1.837606,-1.724509 -4.788063,-1.724509 -6.616317,0.008866c-1.823579,1.733376 -1.823579,4.539582 0.009352,6.277391l0,-0.008866c4.035252,3.830272 6.522801,9.083597 6.522801,14.922103c0,5.834072 -2.482872,11.069665 -6.513449,14.899937c-1.842282,1.724509 -1.842282,4.530716 -0.009352,6.272958c0.911789,0.864471 2.108805,1.298923 3.305821,1.298923c1.201692,0 2.398707,-0.434452 3.310497,-1.298923c5.71388,-5.408486 9.258168,-12.922736 9.253493,-21.172895c0.004676,-8.267891 -3.55364,-15.791007 -9.262844,-21.199494zm10.731059,-10.169728c-1.837606,-1.733376 -4.788063,-1.733376 -6.606966,0c-1.83293,1.733376 -1.83293,4.544015 0,6.268524c6.779972,6.432552 10.960175,15.281191 10.960175,25.096264c0,9.806207 -4.180203,18.650412 -10.950823,25.087397c-1.83293,1.728942 -1.83293,4.535149 0,6.268524c0.911789,0.864471 2.108805,1.298923 3.310497,1.298923c1.197016,0 2.394031,-0.434452 3.305821,-1.298923c8.453924,-8.019633 13.695543,-19.129196 13.686191,-31.355922c0.004676,-12.235592 -5.236944,-23.354022 -13.704895,-31.364788z" fill-opacity="null" stroke-opacity="null" stroke-width="1.5" fill="#ffffff"/>
  <line fill="none" stroke="#bf0000" stroke-width="2.5" x1="7.5" y1="5" x2="98.5" y2="96" id="svg_2" stroke-linejoin="null" stroke-linecap="null"/>
  <line fill="none" stroke-width="2.5" x1="5.5" y1="5" x2="96.5" y2="96" id="svg_3" stroke-linejoin="null" stroke-linecap="null" stroke="#bf0000" transform="rotate(-90.51155853271484 51.00000000000001,50.5) "/>
  </g>
  <g id="Sound" class="sprite">
  <path stroke="#bf0000" id="svg_1" d="m7.462484,35.400782l0,35.004434l21.017913,0l31.463745,24.497784l0.018703,-84.000001l-31.468421,24.497784l-21.03194,0zm64.564035,-4.025333c-1.837606,-1.724509 -4.788063,-1.724509 -6.616317,0.008866c-1.823579,1.733376 -1.823579,4.539582 0.009352,6.277391l0,-0.008866c4.035252,3.830272 6.522801,9.083597 6.522801,14.922103c0,5.834072 -2.482872,11.069665 -6.513449,14.899937c-1.842282,1.724509 -1.842282,4.530716 -0.009352,6.272958c0.911789,0.864471 2.108805,1.298923 3.305821,1.298923c1.201692,0 2.398707,-0.434452 3.310497,-1.298923c5.71388,-5.408486 9.258168,-12.922736 9.253493,-21.172895c0.004676,-8.267891 -3.55364,-15.791007 -9.262844,-21.199494zm10.731059,-10.169728c-1.837606,-1.733376 -4.788063,-1.733376 -6.606966,0c-1.83293,1.733376 -1.83293,4.544015 0,6.268524c6.779972,6.432552 10.960175,15.281191 10.960175,25.096264c0,9.806207 -4.180203,18.650412 -10.950823,25.087397c-1.83293,1.728942 -1.83293,4.535149 0,6.268524c0.911789,0.864471 2.108805,1.298923 3.310497,1.298923c1.197016,0 2.394031,-0.434452 3.305821,-1.298923c8.453924,-8.019633 13.695543,-19.129196 13.686191,-31.355922c0.004676,-12.235592 -5.236944,-23.354022 -13.704895,-31.364788z" fill-opacity="null" stroke-opacity="null" stroke-width="1.5" fill="#ffffff"/>
  </g>
    <g id="offVibro" class="sprite">
  
  <path stroke="#bf0000" transform="rotate(-90 49.442497253417976,50.56947326660156) " id="svg_4" d="m54.626093,82.000167c2.575729,-1.031498 4.688405,-1.992046 0.687259,-2.020158c-3.53358,0.518174 -12.674637,-3.290579 -5.348457,-5.162671c4.583355,-1.952563 15.014057,2.557414 15.069657,-5.156978c-0.829133,-4.834564 -14.283853,-1.059772 -9.857687,-7.54356c4.874608,-2.174761 14.540559,2.949256 16.175779,-3.780311c-1.49899,-6.525115 -10.874758,-2.360814 -15.587257,-4.164134c-4.568397,1.028148 -5.771482,-5.526408 -0.644262,-4.537078c11.852727,-0.697708 23.788127,0.32626 35.600021,-1.097586c1.908019,-1.153139 3.318426,-8.246618 0.910585,-8.724304c-17.206285,-0.389006 -34.442977,-0.031454 -51.622026,-1.191786c-6.171865,-0.069938 -1.456221,-7.26063 3.104437,-5.571919c4.344288,-1.552181 6.065942,-5.622115 9.254362,-9.640857c1.62933,-8.7842 -6.201405,-5.523899 -9.399423,-2.953439c-3.571051,2.554397 -9.713393,7.856605 -12.971848,10.64006c-2.856364,2.253565 -9.437215,4.754253 -13.440411,7.775124c-3.421789,1.326807 -7.166258,0.66625 -10.527083,0.904503c0,11.901614 0,23.803055 0,35.704666c9.508336,4.51734 19.513745,8.485374 30.055009,8.031453c6.175007,-0.027434 12.52738,0.224541 18.541341,-1.511021l0.000003,-0.000004zm-39.174782,3.817289c-4.853866,-2.034884 -9.698928,-4.095699 -14.508816,-6.251721c0.230178,-14.862583 0.460353,-29.725332 0.690518,-44.587915c3.840256,-0.159123 9.538561,1.919265 12.275804,-1.14109c7.359222,-2.577152 12.137212,-8.277239 18.58861,-12.555478c4.540053,-3.892413 8.166434,-5.220893 12.855697,-8.172833c3.561704,-1.797131 5.490194,-0.879408 9.500886,-0.095873c1.749244,3.123267 3.920795,4.737524 2.793957,10.68741c-2.351311,1.290503 -5.402683,9.964107 -0.781967,10.033039c12.864109,1.345042 25.93535,-0.545448 38.698265,1.805326c3.178069,4.69452 3.784162,15.241216 -2.032465,18.218254c-5.566396,1.755963 -11.435368,0.884924 -17.154317,1.096076c-0.000348,4.441208 0.672613,10.10883 -3.845302,12.339807c-3.335996,4.747397 -3.570593,11.721584 -8.946104,15.195376c-4.520968,5.054582 -10.956681,6.615976 -17.234096,6.449328c-10.293419,0.152256 -21.128172,1.22892 -30.900667,-3.019375l0,-0.000337l-0.000003,0.000007z" fill-opacity="null" stroke-opacity="null" stroke-width="1.5" fill="#ffffff"/>
  <line fill="none" stroke="#bf0000" stroke-width="2.5" x1="7.5" y1="5" x2="98.5" y2="96" id="svg_2" stroke-linejoin="null" stroke-linecap="null"/>
  <line fill="none" stroke-width="2.5" x1="5.5" y1="5" x2="96.5" y2="96" id="svg_3" stroke-linejoin="null" stroke-linecap="null" stroke="#bf0000" transform="rotate(-90.51155853271484 51.00000000000001,50.5) "/>
 </g>
 <g id="Vibro" class="sprite">
  <path stroke="#bf0000" transform="rotate(-90 49.442497253417976,50.56947326660156) " id="svg_4" d="m54.626093,82.000167c2.575729,-1.031498 4.688405,-1.992046 0.687259,-2.020158c-3.53358,0.518174 -12.674637,-3.290579 -5.348457,-5.162671c4.583355,-1.952563 15.014057,2.557414 15.069657,-5.156978c-0.829133,-4.834564 -14.283853,-1.059772 -9.857687,-7.54356c4.874608,-2.174761 14.540559,2.949256 16.175779,-3.780311c-1.49899,-6.525115 -10.874758,-2.360814 -15.587257,-4.164134c-4.568397,1.028148 -5.771482,-5.526408 -0.644262,-4.537078c11.852727,-0.697708 23.788127,0.32626 35.600021,-1.097586c1.908019,-1.153139 3.318426,-8.246618 0.910585,-8.724304c-17.206285,-0.389006 -34.442977,-0.031454 -51.622026,-1.191786c-6.171865,-0.069938 -1.456221,-7.26063 3.104437,-5.571919c4.344288,-1.552181 6.065942,-5.622115 9.254362,-9.640857c1.62933,-8.7842 -6.201405,-5.523899 -9.399423,-2.953439c-3.571051,2.554397 -9.713393,7.856605 -12.971848,10.64006c-2.856364,2.253565 -9.437215,4.754253 -13.440411,7.775124c-3.421789,1.326807 -7.166258,0.66625 -10.527083,0.904503c0,11.901614 0,23.803055 0,35.704666c9.508336,4.51734 19.513745,8.485374 30.055009,8.031453c6.175007,-0.027434 12.52738,0.224541 18.541341,-1.511021l0.000003,-0.000004zm-39.174782,3.817289c-4.853866,-2.034884 -9.698928,-4.095699 -14.508816,-6.251721c0.230178,-14.862583 0.460353,-29.725332 0.690518,-44.587915c3.840256,-0.159123 9.538561,1.919265 12.275804,-1.14109c7.359222,-2.577152 12.137212,-8.277239 18.58861,-12.555478c4.540053,-3.892413 8.166434,-5.220893 12.855697,-8.172833c3.561704,-1.797131 5.490194,-0.879408 9.500886,-0.095873c1.749244,3.123267 3.920795,4.737524 2.793957,10.68741c-2.351311,1.290503 -5.402683,9.964107 -0.781967,10.033039c12.864109,1.345042 25.93535,-0.545448 38.698265,1.805326c3.178069,4.69452 3.784162,15.241216 -2.032465,18.218254c-5.566396,1.755963 -11.435368,0.884924 -17.154317,1.096076c-0.000348,4.441208 0.672613,10.10883 -3.845302,12.339807c-3.335996,4.747397 -3.570593,11.721584 -8.946104,15.195376c-4.520968,5.054582 -10.956681,6.615976 -17.234096,6.449328c-10.293419,0.152256 -21.128172,1.22892 -30.900667,-3.019375l0,-0.000337l-0.000003,0.000007z" fill-opacity="null" stroke-opacity="null" stroke-width="1.5" fill="#ffffff"/>
  </g>
</svg>