<svg width="300" height="300" xmlns="http://www.w3.org/2000/svg">
<defs>

  <style><![CDATA[
    .sprite { display: none; }
    .sprite:target { display: inline; }
.sprite:nth-of-type(even){transform-origin: 100% 100%;
animation: transformBalls1 0.8s infinite ease-in-out;
animation-direction: alternate;
}
@keyframes transformBalls1{
from{
transform: skewX(3deg)
}
to{
transform: skewX(-3deg) 
}
}
.sprite:nth-of-type(odd){transform-origin: 100% 100%;
animation: transformBalls2 0.8s infinite ease-in-out;
animation-direction: alternate;
}
@keyframes transformBalls2{
from{

}
to{
transform: scale(0.9) 
}
}
  ]]></style>

</defs>
 <g class="sprite" id="fruit">
  <text style="cursor: move;" fill="#00ff00" stroke-width="0" stroke-opacity="null" x="105.604315" y="85.141741" id="svg_1" font-size="32" font-family="'Palatino Linotype', 'Book Antiqua', Palatino, serif" text-anchor="start" xml:space="preserve" font-weight="bold" transform="rotate(9.179198265075684 132.29911804199224,57.57428741455082) matrix(2.436543542375844,0,0,1.734528971386041,-148.5886615913412,-69.16828789504363) " stroke="null">L</text>
  <text fill="#00007f" stroke-width="0" stroke-opacity="null" x="124.815444" y="101.096584" id="svg_2" font-size="32" font-family="'Palatino Linotype', 'Book Antiqua', Palatino, serif" text-anchor="start" xml:space="preserve" font-weight="bold" transform="matrix(1.4384914129559663,0,0,1.280136007779269,-34.54646125033112,-63.97163247428476) " stroke="null">Q</text>
  <text style="cursor: move;" fill="#00ff00" stroke-width="0" stroke-opacity="null" x="143.166666" y="142.8" id="svg_3" font-size="32" font-family="'Palatino Linotype', 'Book Antiqua', Palatino, serif" text-anchor="start" xml:space="preserve" font-weight="bold" transform="matrix(1.3200000524520874,0,0,1.25,-48.48000794649124,-34) " stroke="null">S</text>
  <text style="cursor: move;" fill="#ff7f00" stroke-width="0" stroke-opacity="null" x="104.983361" y="123.171868" id="svg_5" font-size="32" font-family="'Palatino Linotype', 'Book Antiqua', Palatino, serif" text-anchor="start" xml:space="preserve" font-weight="bold" transform="rotate(-24.443954467773438 136.6315155029296,106.81583404541014) matrix(1.9093479953593708,0,0,1.2157390102875354,-89.16380849670352,-28.10269917309172) " stroke="null">D</text>
  <text fill="#ff0000" stroke-width="0" x="161.545803" y="104" id="svg_6" font-size="32" font-family="'Palatino Linotype', 'Book Antiqua', Palatino, serif" text-anchor="start" xml:space="preserve" font-weight="bold" transform="rotate(14.652314186096191 173.0856475830078,96.81473541259768) matrix(2.156886477000141,0,0,1.7190145949971352,-202.14519443960984,-61.56291086471325) " stroke="#ff0000">A</text>
  <ellipse fill="#ffff00" stroke-width="null" cx="147.500001" cy="89.999994" id="svg_7" rx="54.999994" ry="69.999999" opacity="0.5" stroke="#7f7f7f"/>
  <path fill="#ffff00" stroke="#7f7f7f" stroke-width="null" d="m141.277519,179.293114l5.499993,-18.999985l5.499993,18.999985l-10.999986,0z" id="svg_8" opacity="0.6"/>
 
  <text fill="#ffff00" stroke-width="0" stroke-opacity="null" x="120.177595" y="89.464465" id="svg_4" font-size="32" font-family="'Palatino Linotype', 'Book Antiqua', Palatino, serif" text-anchor="start" xml:space="preserve" font-weight="bold" transform="rotate(-2.8647801876068115 150.82740783691384,89.09072113037105) matrix(1.6692156837959917,0,0,1.3092014621236314,-67.56046773378608,-12.309032846237077) " stroke="null">Y</text>
     <path fill="none" stroke="#333333" stroke-width="null" fill-opacity="null" id="svg_10" d="m146.5,161c0,0 -0.292892,0.292892 -1,1c-0.707108,0.707108 0,2 0,3c0,1 -0.707108,2.292892 0,3c0.707108,0.707108 1.292892,0.292892 2,1c0.707108,0.707108 0.458801,1.693436 1,3c0.38269,0.923874 0,2 0,3c0,1 0,2 0,3c0,1 -0.458801,1.693436 -1,3c-0.38269,0.923874 -0.292892,1.292892 -1,2c-0.707108,0.707108 -1,1 -1,2c0,1 0,2 0,3c0,1 0,2 0,3c0,1 -0.38269,2.076126 0,3c0.541199,1.306564 1.692551,1.186005 3,3c0.826904,1.147263 2.458801,1.693436 3,3c0.38269,0.923874 1,1 1,2c0,2 0.765366,3.152237 0,5c-0.541199,1.306564 -2.513,5.593994 -4,8c-1.662506,2.689987 -1.234634,3.152237 -2,5c-0.541199,1.306564 -1.292892,1.292892 -2,2c-0.707108,0.707108 -1.707108,2.292892 -1,3c0.707108,0.707108 2.292892,-0.707108 3,0c0.707108,0.707108 1.076126,0.61731 2,1c1.306564,0.541199 1.292892,1.292892 2,2c0.707108,0.707108 1,2 1,3c0,1 1,1 1,2c0,1 0,2 0,3c0,1 0,2 0,3l0,1l0,1l0,1"/>
    
          
         <rect rx="10" opacity="0.7" stroke="#333333" id="svg_17" height="28" width="91.000004" y="239.5" x="110.499996" stroke-opacity="null" stroke-width="null" fill="#ffff00"/>
  <text font-style="italic" font-weight="bold" xml:space="preserve" text-anchor="start" font-family="'Palatino Linotype', 'Book Antiqua', Palatino, serif" font-size="20" id="svg_18" y="259.5" x="116.5" stroke-opacity="null" stroke-width="0.5" stroke="#333333" fill="#007f00">Alphabet</text></g>
  

    <g class="sprite" id="numbers">
  <text fill="#00ff00" stroke-width="0" stroke-opacity="null" x="105.604315" y="85.141741" id="svg_1" font-size="32" font-family="'Palatino Linotype', 'Book Antiqua', Palatino, serif" text-anchor="start" xml:space="preserve" font-weight="bold" transform="rotate(9.179198265075684 128.0892639160156,57.56554412841804) matrix(2.436543542375844,0,0,1.734528971386041,-148.5886615913412,-69.16828789504363) " stroke="null">9</text>
  <text fill="#00007f" stroke-width="0" stroke-opacity="null" x="119.949235" y="110.470588" id="svg_2" font-size="32" font-family="'Palatino Linotype', 'Book Antiqua', Palatino, serif" text-anchor="start" xml:space="preserve" font-weight="bold" transform="matrix(1.4384914129559663,0,0,1.280136007779269,-34.54646125033112,-63.97163247428476) " stroke="null">1</text>
  <text fill="#00ff00" stroke-width="0" stroke-opacity="null" x="143.166666" y="142.8" id="svg_3" font-size="32" font-family="'Palatino Linotype', 'Book Antiqua', Palatino, serif" text-anchor="start" xml:space="preserve" font-weight="bold" transform="matrix(1.3200000524520874,0,0,1.25,-48.48000794649124,-34) " stroke="null">6</text>
  <text fill="#ff7f00" stroke-width="0" stroke-opacity="null" x="104.983361" y="123.171868" id="svg_5" font-size="32" font-family="'Palatino Linotype', 'Book Antiqua', Palatino, serif" text-anchor="start" xml:space="preserve" font-weight="bold" transform="rotate(-24.443954467773438 126.50172424316395,106.78018951416011) matrix(1.9093479953593708,0,0,1.2157390102875354,-89.16380849670352,-28.10269917309172) " stroke="null">8</text>
  <text fill="#ff0000" stroke-width="0" x="161.545803" y="104" id="svg_6" font-size="32" font-family="'Palatino Linotype', 'Book Antiqua', Palatino, serif" text-anchor="start" xml:space="preserve" font-weight="bold" transform="rotate(14.652314186096191 166.9358978271484,98.03323364257807) matrix(2.5117450589153996,0,0,1.7190145949971347,-259.19942467460214,-60.339279964740754) " stroke="#ff0000">7</text>
  <ellipse fill="#00ffff" stroke-width="null" cx="146.500001" cy="87.999994" id="svg_7" rx="54.999994" ry="69.999999" opacity="0.5" stroke="#0000bf"/>
  <path fill="#00ffff" stroke="#0000bf" stroke-width="null" d="m141.277519,179.293114l5.499993,-18.999985l5.499993,18.999985l-10.999986,0z" id="svg_8" opacity="0.6"/>
  <path fill="none" stroke="#333333" stroke-width="null" fill-opacity="null" id="svg_10" d="m146.5,161c0,0 -0.292892,0.292892 -1,1c-0.707108,0.707108 0,2 0,3c0,1 -0.707108,2.292892 0,3c0.707108,0.707108 1.292892,0.292892 2,1c0.707108,0.707108 0.458801,1.693436 1,3c0.38269,0.923874 0,2 0,3c0,1 0,2 0,3c0,1 -0.458801,1.693436 -1,3c-0.38269,0.923874 -0.292892,1.292892 -1,2c-0.707108,0.707108 -1,1 -1,2c0,1 0,2 0,3c0,1 0,2 0,3c0,1 -0.38269,2.076126 0,3c0.541199,1.306564 1.692551,1.186005 3,3c0.826904,1.147263 2.458801,1.693436 3,3c0.38269,0.923874 1,1 1,2c0,2 0.765366,3.152237 0,5c-0.541199,1.306564 -2.513,5.593994 -4,8c-1.662506,2.689987 -1.234634,3.152237 -2,5c-0.541199,1.306564 -1.292892,1.292892 -2,2c-0.707108,0.707108 -1.707108,2.292892 -1,3c0.707108,0.707108 2.292892,-0.707108 3,0c0.707108,0.707108 1.076126,0.61731 2,1c1.306564,0.541199 1.292892,1.292892 2,2c0.707108,0.707108 1,2 1,3c0,1 1,1 1,2c0,1 0,2 0,3c0,1 0,2 0,3l0,1l0,1l0,1"/>
  <text fill="#ffff00" stroke-width="0" stroke-opacity="null" x="126.716743" y="75.044279" id="svg_4" font-size="32" font-family="'Palatino Linotype', 'Book Antiqua', Palatino, serif" text-anchor="start" xml:space="preserve" font-weight="bold" transform="rotate(-2.8647801876068115 144.34191894531236,81.1715774536134) matrix(2.6119879691559333,0,0,1.843948408626197,-207.4805944704881,-35.17004643806675) " stroke="null">5</text>
  <rect rx="10" opacity="0.7" stroke="#333333" id="svg_17" height="28" width="91.000004" y="239.5" x="110.499996" stroke-opacity="null" stroke-width="null" fill="#00ffff"/>
  <text style="cursor: move;" font-style="italic" font-weight="bold" xml:space="preserve" text-anchor="start" font-family="'Palatino Linotype', 'Book Antiqua', Palatino, serif" font-size="20" id="svg_18" y="259.5" x="116.5" stroke-opacity="null" stroke-width="0.5" stroke="#333333" fill="#00ff00">Numbers</text>
 </g>
    <g class="sprite" id="family">
  <path opacity="0.6" id="svg_8" d="m153.277519,177.293114l5.499993,-18.999985l5.499993,18.999985l-10.999986,0z" stroke-width="null" stroke="#ffff00" fill="#ffff00"/>
  <ellipse transform="rotate(-8.24975872039795 143.50000000000003,89.99999237060545) " stroke="#ffff00" opacity="0.5" ry="69.999999" rx="54.999994" id="svg_7" cy="89.999994" cx="143.500001" stroke-width="null" fill="#ffff00"/>
  <path d="m158.5,159c0,0 -0.292892,0.292892 -1,1c-0.707108,0.707108 0,2 0,3c0,1 -0.707108,2.292892 0,3c0.707108,0.707108 1.292892,0.292892 2,1c0.707108,0.707108 0.458801,1.693436 1,3c0.38269,0.923874 0,2 0,3c0,1 0,2 0,3c0,1 -0.458801,1.693436 -1,3c-0.38269,0.923874 -0.292892,1.292892 -1,2c-0.707108,0.707108 -1,1 -1,2c0,1 0,2 0,3c0,1 0,2 0,3c0,1 -0.38269,2.076126 0,3c0.541199,1.306564 1.692551,1.186005 3,3c0.826904,1.147263 2.458801,1.693436 3,3c0.38269,0.923874 1,1 1,2c0,2 0.765366,3.152237 0,5c-0.541199,1.306564 -2.513,5.593994 -4,8c-1.662506,2.689987 -1.234634,3.152237 -2,5c-0.541199,1.306564 -1.292892,1.292892 -2,2c-0.707108,0.707108 -1.707108,2.292892 -1,3c0.707108,0.707108 2.292892,-0.707108 3,0c0.707108,0.707108 1.076126,0.61731 2,1c1.306564,0.541199 1.292892,1.292892 2,2c0.707108,0.707108 1,2 1,3c0,1 1,1 1,2c0,1 0,2 0,3c0,1 0,2 0,3l0,1l0,1l0,1" id="svg_10" fill-opacity="null" stroke-width="null" stroke="#333333" fill="none"/>
  <path opacity="0.9" id="svg_12" d="m113.959765,48.386323c0,-2.816694 2.364797,-5.098219 5.284292,-5.098219c2.919499,0 5.284288,2.281525 5.284288,5.098219c0,2.816694 -2.364789,5.098219 -5.284288,5.098219c-2.919499,0 -5.284292,-2.281525 -5.284292,-5.098219zm17.766692,14.431216l0,-2.574747c0,-2.709012 -2.274971,-4.905445 -5.084482,-4.905445l-14.812206,0c-2.807884,0 -5.08448,2.196433 -5.08448,4.905445l0,2.574747c-0.00491,0.058442 -0.008188,0.118471 -0.008188,0.179283l0,14.830071c0,1.152318 0.967621,2.085858 2.161994,2.085858c1.192739,0 2.162806,-0.933545 2.162806,-2.085858l0,-14.610504l1.449784,0l0,16.69794l0.010641,0l0,23.593687c0,1.533786 1.290977,2.780089 2.882381,2.780089c1.592225,0 2.882381,-1.244722 2.882381,-2.780089l0,-23.593687l1.901668,0l0,23.593687c0,1.533786 1.291776,2.780089 2.882377,2.780089c1.592218,0 2.882374,-1.244722 2.882374,-2.780089l0,-23.593687l0.009005,0l0,-16.69794l1.449786,0l0,14.609709c0,1.15232 0.970065,2.086651 2.162808,2.086651c1.194388,0 2.161994,-0.934331 2.161994,-2.086651l0,-14.830067c-0.000812,-0.061603 -0.005731,-0.120051 -0.010643,-0.178495l0,0.000002z" stroke-opacity="null" stroke-width="null" stroke="#0000bf" fill="#000000"/>
  <path opacity="0.9" id="svg_13" d="m147.906484,60.965429c3.240703,0 5.870935,-1.955699 5.870935,-4.368334c0,-2.413991 -2.630232,-4.371043 -5.870935,-4.371043c-3.243439,0 -5.874573,1.957051 -5.874573,4.371043c0,2.412635 2.630227,4.368334 5.874573,4.368334zm16.46555,18.839417l-5.268649,-14.539452c-0.049129,-0.132004 -0.118282,-0.257915 -0.201973,-0.374351c-0.598655,-1.362016 -2.317263,-2.348326 -4.347027,-2.348326l-13.334928,0c-2.116194,0 -3.893044,1.070929 -4.41617,2.524333c-0.035483,0.063633 -0.064595,0.130651 -0.090978,0.199697l-5.174943,14.538776c-0.344819,0.953137 0.415775,1.932679 1.698586,2.189244c1.281003,0.255208 2.597489,-0.310719 2.942307,-1.263856l4.064071,-11.420762l1.693137,0l-7.37575,20.663786l6.949972,0l0,14.265963c0,1.097331 1.193651,1.986159 2.670258,1.986159c1.472966,0 2.669349,-0.888155 2.669349,-1.986159l0,-14.265963l2.123474,0l0,14.265963c0,1.097331 1.195472,1.986159 2.672084,1.986159c1.472963,0 2.669349,-0.888155 2.669349,-1.986159l0,-14.265963l6.946319,0l-7.403039,-20.663786l1.73772,0l4.138669,11.420762c0.344814,0.953137 1.661302,1.519064 2.942293,1.263856c1.278271,-0.256563 2.038862,-1.236779 1.695869,-2.18992l-0.000002,0z" stroke-opacity="null" stroke-width="null" stroke="#0000bf" fill="#bf0000"/>
  <path opacity="0.9" stroke="#0000bf" id="svg_14" d="m171.850516,100.644949c-0.908182,-1.955745 -2.019277,-3.539125 -3.133785,-4.646761c-1.300456,1.135333 -2.88434,1.826667 -4.611083,1.826667c-1.730133,0 -3.316296,-0.692681 -4.614459,-1.826667c-1.114505,1.107636 -2.226736,2.691016 -3.137147,4.646761c-2.113381,4.54068 -2.345802,9.198259 -0.520432,10.405908c0.817477,0.544007 1.674591,0.138536 2.560086,-0.878549c-0.155328,1.03126 -0.246036,2.149012 -0.246036,3.31815c0,5.19418 1.692745,9.401682 3.77887,9.401682c1.257377,0 1.879817,-1.532046 2.179119,-3.877725c0.298199,2.345679 0.920633,3.877725 2.173453,3.877725c2.089553,0 3.782314,-4.207502 3.782314,-9.401682c0,-1.169139 -0.090738,-2.28689 -0.249442,-3.31815c0.887742,1.017085 1.743728,1.422556 2.563475,0.878549c1.824246,-1.207648 1.588393,-5.865229 -0.524929,-10.405908l-0.000001,0zm-7.7471,-4.592026c3.51015,0 6.357066,-3.393835 6.357066,-7.580385s-2.846915,-7.580395 -6.357066,-7.580395c-3.511344,0 -6.360508,3.39451 -6.360508,7.580395s2.849164,7.580385 6.360508,7.580385z" fill-opacity="null" stroke-opacity="null" stroke-width="null" fill="#00ffff"/>
  <path opacity="0.9" stroke="#0000bf" id="svg_15" d="m140.669476,106.123437c-0.9075,-1.557279 -2.019062,-2.817652 -3.13347,-3.698771c-1.300324,0.903734 -2.884062,1.453481 -4.612369,1.453481c-1.729411,0 -3.315429,-0.551383 -4.614066,-1.453481c-1.114407,0.881119 -2.225959,2.141493 -3.136877,3.698771c-2.112611,3.613766 -2.346142,7.321106 -0.521496,8.28292c0.817381,0.433016 1.675016,0.109742 2.560413,-0.699302c-0.155883,0.820331 -0.248281,1.710056 -0.248281,2.641199c0,4.134483 1.692579,7.483558 3.779122,7.483558c1.256679,0 1.879644,-1.219982 2.178348,-3.08711c0.298717,1.867128 0.9211,3.08711 2.174976,3.08711c2.089356,0 3.781929,-3.349075 3.781929,-7.483558c0,-0.931143 -0.090685,-1.820867 -0.249394,-2.641199c0.888228,0.809044 1.744147,1.132318 2.563221,0.699302c1.827502,-0.961816 1.591115,-4.669154 -0.522058,-8.28292zm-7.747533,-3.655173c3.511564,0 6.358214,-2.701998 6.358214,-6.033882s-2.84665,-6.033862 -6.358214,-6.033862c-3.511,0 -6.359925,2.701434 -6.359925,6.033862s2.848924,6.033882 6.359925,6.033882zm4.34368,-12.385122c1.834853,0.641208 0.730647,-1.022598 0.730647,-2.159223s1.132548,-2.526621 -0.730647,-1.961253c-1.955594,0.594926 -3.541041,0.921989 -3.541041,2.060224s1.585448,1.376015 3.541041,2.060251zm-4.331774,-0.809567c1.162017,0 0.512988,-0.558365 0.512988,-1.24637c0,-0.688535 0.65073,-1.245294 -0.512988,-1.245294s-0.55551,0.558369 -0.55551,1.245294c0,0.689612 -0.606526,1.24637 0.55551,1.24637zm-4.356721,0.809567c1.955595,-0.682635 3.541028,-0.922545 3.541028,-2.060251s-1.585433,-1.465298 -3.541028,-2.060224c-1.863198,-0.56698 -0.731223,0.823539 -0.731223,1.961253s-1.105334,2.799349 0.731223,2.159223z" stroke-opacity="null" stroke-width="null" fill="#ff007f"/>
        
  <rect rx="10" opacity="0.7" stroke="#333333" id="svg_17" height="28" width="91.000004" y="239.5" x="119.499996" stroke-opacity="null" stroke-width="null" fill="#ffff00"/>
  <text font-style="italic" font-weight="bold" xml:space="preserve" text-anchor="start" font-family="'Palatino Linotype', 'Book Antiqua', Palatino, serif" font-size="20" id="svg_18" y="259.5" x="129.5" fill-opacity="null" stroke-opacity="null" stroke-width="0" stroke="#333333" fill="#00ff00">FaMiLy</text>
 </g>
    <g class="sprite" id="animals">
  
  <path opacity="0.6" id="svg_8" d="m153.277519,177.293114l5.499993,-18.999985l5.499993,18.999985l-10.999986,0z" stroke-width="null" stroke="#0000ff" fill="#00ffff"/>
  <ellipse transform="rotate(-8.24975872039795 149.50000000000017,88.99999237060543) " stroke="#0000ff" opacity="0.5" ry="69.999999" rx="54.999994" id="svg_7" cy="88.999994" cx="149.500001" stroke-width="null" fill="#00ffff"/>
  <path d="m158.5,159c0,0 -0.292892,0.292892 -1,1c-0.707108,0.707108 0,2 0,3c0,1 -0.707108,2.292892 0,3c0.707108,0.707108 1.292892,0.292892 2,1c0.707108,0.707108 0.458801,1.693436 1,3c0.38269,0.923874 0,2 0,3c0,1 0,2 0,3c0,1 -0.458801,1.693436 -1,3c-0.38269,0.923874 -0.292892,1.292892 -1,2c-0.707108,0.707108 -1,1 -1,2c0,1 0,2 0,3c0,1 0,2 0,3c0,1 -0.38269,2.076126 0,3c0.541199,1.306564 1.692551,1.186005 3,3c0.826904,1.147263 2.458801,1.693436 3,3c0.38269,0.923874 1,1 1,2c0,2 0.765366,3.152237 0,5c-0.541199,1.306564 -2.513,5.593994 -4,8c-1.662506,2.689987 -1.234634,3.152237 -2,5c-0.541199,1.306564 -1.292892,1.292892 -2,2c-0.707108,0.707108 -1.707108,2.292892 -1,3c0.707108,0.707108 2.292892,-0.707108 3,0c0.707108,0.707108 1.076126,0.61731 2,1c1.306564,0.541199 1.292892,1.292892 2,2c0.707108,0.707108 1,2 1,3c0,1 1,1 1,2c0,1 0,2 0,3c0,1 0,2 0,3l0,1l0,1l0,1" id="svg_10" fill-opacity="null" stroke-width="null" stroke="#333333" fill="none"/>
  <rect rx="10" opacity="0.7" stroke="#333333" id="svg_17" height="28" width="91.000004" y="239.5" x="119.499996" stroke-opacity="null" stroke-width="null" fill="#00ffff"/>
  <text font-style="italic" font-weight="bold" xml:space="preserve" text-anchor="start" font-family="'Palatino Linotype', 'Book Antiqua', Palatino, serif" font-size="20" id="svg_18" y="259.5" x="125.5" fill-opacity="null" stroke-opacity="null" stroke-width="0.5" stroke="#333333" fill="#00ff00">Animals</text>
  <path id="svg_19" d="m161.220835,148.800956c-1.290158,-0.563164 0.393399,-1.689121 1.030782,-2.187191c0.429332,-0.383579 -2.460531,0.053808 -1.240456,-1.277749c1.3386,-1.087809 0.832948,-2.928141 -0.505073,-3.783596c-1.841396,-1.203508 -4.204025,-2.233542 -4.884304,-4.480819c-0.687864,-1.399729 0.943416,-2.873929 -0.105814,-4.137921c-0.844536,-1.64116 0.142122,-3.352546 0.755401,-4.872825c0.282032,-2.102998 -1.445645,-3.76607 -2.39576,-5.493799c-1.176459,-1.651057 -1.854624,-3.574919 -1.952075,-5.579811c-0.255849,-0.855773 0.027291,-2.184765 1.048943,-1.03101c2.139493,1.658277 4.488296,3.231782 5.985689,5.501563c0.283441,0.819863 1.418393,3.196062 1.481769,1.044279c0.029683,-2.957476 0.962855,-6.183046 3.354035,-8.16493c1.626439,-1.434536 2.503571,1.077279 2.57946,2.353688c0.423332,2.511438 -0.278391,5.001937 -1.060356,7.374331c-0.287067,1.102528 -1.034663,4.123856 1.09749,3.009841c4.911716,-1.83557 10.862624,0.092272 14.061904,4.035466c1.470681,1.909246 2.114745,4.362182 2.100204,6.717414c-0.757286,1.383688 2.056436,-0.025921 1.03688,1.570438c-0.600202,1.768385 -2.296008,2.727932 -3.483871,4.062699c-1.208748,1.069567 -0.311893,3.356348 -2.310812,3.693302c-2.916665,0.870335 -5.979402,1.251574 -9.015753,1.473481c-1.699133,0.336955 -2.52373,-1.543725 -0.895172,-2.325571c0.780775,-1.165076 3.014551,-1.246722 3.678251,-1.431292c-1.586024,0.150212 -3.541987,-0.476398 -4.878447,0.47439c-0.809376,1.271835 -1.457616,2.945845 -3.154886,3.308864c-0.76275,0.205056 -1.546993,0.369497 -2.328027,0.146754l-0.000001,0.000001z" stroke-width="null" stroke="#000000" fill="#333333"/>
  <path stroke="#000000" id="svg_20" d="m145.881992,123.4176c-1.95538,-2.324844 -4.996081,-2.58996 -5.727245,-5.899073c-0.573087,-1.799888 -5.9757,-4.213895 -2.778174,-0.983342c2.469056,1.946704 5.402448,9.127072 -0.671952,6.858428c-4.620036,-1.473898 -4.818146,-6.025159 -6.056536,-9.432526c-4.027156,-2.428774 1.041192,-7.564238 -3.294909,-10.676139c-3.680122,-3.248453 -1.117148,-9.332324 -6.375735,-11.635656c-2.639461,-0.931233 -3.781942,5.498505 -4.226356,0.794731c-1.446046,-4.757395 -6.553098,2.312613 -9.958623,1.563081c-2.748063,-0.207667 4.596797,-1.868382 1.091791,-2.315296c-2.060676,0.9806 -3.967298,2.676118 -4.293313,-0.130466c-2.47887,-1.279763 -7.677112,-3.323492 -7.542078,-5.356517c2.152645,-0.587831 9.419729,1.11309 8.160372,-1.250296c-2.16098,-0.712894 -2.553533,-2.661633 0.093241,-1.353772c5.216053,0.142236 11.330751,-1.667684 15.670839,1.793987c2.263805,1.210827 4.489658,5.553456 5.701583,1.333233c3.906679,-4.095951 11.789726,-4.442892 14.198014,-9.746123c0.582775,-2.56577 -1.789848,-4.029617 -3.805465,-4.549331c-0.39214,-0.843204 -1.059686,-4.423133 -2.726466,-2.616588c0.075969,-1.581154 1.639494,-5.362253 -1.82377,-3.688359c-0.351271,-3.367761 2.960657,-6.727677 -1.420578,-9.180122c4.104983,0.661956 3.295498,-3.406124 2.401395,-4.051306c2.433398,-0.300362 5.289105,-2.203859 3.947413,-4.561968c2.642605,4.170335 2.734236,-5.059387 4.909879,-1.0811c4.004283,0.570649 -1.243983,-3.109827 2.438975,-2.288332c2.103011,0.062552 1.63594,-2.003034 3.525165,-0.444066c2.500359,-1.185932 -1.916771,-4.770012 2.120324,-2.279752c1.357126,1.024878 5.677834,3.709186 4.902599,0.167005c3.836142,3.557158 6.854985,-3.303995 10.04267,-4.724872c1.264403,-1.314936 4.013955,-2.706547 1.478148,-0.196477c-1.683446,3.199565 -7.394813,6.660816 -5.85828,9.840048c-1.390805,1.100665 2.806157,2.484009 -0.534799,2.067313c-1.979279,1.857227 2.653569,5.331986 3.023293,8.254975c-1.061206,2.002767 -5.102026,4.276438 -6.73664,4.204576c0.597435,-2.578564 -0.697722,-5.939429 -4.480639,-4.481916c2.119115,3.370535 4.984129,6.59046 6.779161,10.255856c1.754515,3.60326 4.599159,7.764296 8.341684,3.126897c2.385378,-2.955683 9.199811,-2.912896 7.327943,1.887144c-0.956905,4.7135 1.60502,10.934371 -3.317661,14.181194c-2.969632,4.974288 -6.261868,-1.849547 -3.928794,-4.431064c-0.594491,-0.737715 -1.054394,-1.258474 0.685238,-2.266882c-0.359206,-0.756413 5.006369,-3.602236 2.30214,-5.348477c-3.075618,3.031669 -7.575959,6.54084 -6.325262,11.047375c1.015077,3.019923 -7.356793,8.197307 -6.687331,3.185463c0.149955,-1.947772 3.349044,-5.722772 2.612656,-6.209107c-2.335625,3.809483 -5.658166,7.469305 -10.678863,8.600345c-4.176235,0.21513 -6.363915,3.138114 -4.3807,6.381195c0.37901,4.595591 -2.411649,8.75483 -3.054126,13.229286c1.194288,4.745749 8.465443,5.704746 9.452395,10.545773c1.695889,3.251236 -2.546196,2.770755 -4.522635,1.861016l0.00001,0.000003zm-10.340198,-14.158102c-0.612149,-2.145223 -1.871905,5.576524 -0.319027,1.478134l0.232469,-0.724072l0.086558,-0.754065l0,0.000003z" stroke-width="null" fill="#7f3f00"/>
 </g>
</svg>