<svg width="190" height="235" xmlns="http://www.w3.org/2000/svg">

 <style><![CDATA[
    .sprite_back { display: none; }
    .sprite_back:target { display: inline;}
  ]]></style>
 <g>
  
  <g stroke="null" class="sprite_back" id="animals">
   <rect stroke="#333333" fill="#00ff00" stroke-width="null" stroke-opacity="null" opacity="null" x="-3.5" y="-8.000018" width="196.000003" height="250.000011" id="svg_1" rx="10"/>
   <path stroke="#333333" fill="#4c4c4c" stroke-opacity="null" d="m114.272711,195.576323c-4.137698,-5.054 -10.571999,-5.630337 -12.119196,-12.824065c-1.212678,-3.912804 -12.644934,-9.160641 -5.878774,-2.137696c5.224661,4.231957 11.431901,19.841457 -1.421894,14.90962c-9.776274,-3.204131 -10.195485,-13.098163 -12.815993,-20.50549c-8.521702,-5.279946 2.203223,-16.444 -6.972224,-23.20899c-7.787355,-7.061859 -2.363955,-20.287663 -13.491437,-25.294903c-5.585255,-2.024424 -8.002818,11.953261 -8.943216,1.727674c-3.059927,-10.342163 -13.866748,5.027413 -21.073038,3.398c-5.815068,-0.451457 9.72709,-4.061707 2.31029,-5.03325c-4.360507,2.131739 -8.395035,5.817641 -9.08491,-0.28363c-5.24543,-2.782087 -16.245225,-7.224978 -15.959489,-11.644598c4.555132,-1.277891 19.932719,2.419761 17.267841,-2.718033c-4.57276,-1.549772 -5.403434,-5.786163 0.197307,-2.942989c11.037471,0.309217 23.976543,-3.625391 33.160427,3.899978c4.790343,2.632228 9.500384,12.072729 12.064889,2.898337c8.266764,-8.90425 24.947763,-9.658468 30.043843,-21.187229c1.233184,-5.577761 -3.787419,-8.760033 -8.052586,-9.889848c-0.829791,-1.833054 -2.242366,-9.615511 -5.769369,-5.688239c0.160754,-3.437283 3.469269,-11.657065 -3.859206,-8.018163c-0.74331,-7.321228 6.264928,-14.625392 -3.006021,-19.956794c8.686388,1.439044 6.973462,-7.404609 5.081489,-8.807185c5.149218,-0.652957 11.192059,-4.790989 8.352958,-9.917315c5.591914,9.065946 5.785805,-10.998674 10.389605,-2.350217c8.473298,1.240544 -2.632349,-6.760489 5.161012,-4.974641c4.450094,0.135989 3.46175,-4.354413 7.459462,-0.965359c5.290911,-2.578109 -4.056008,-10.369587 4.486727,-4.955978c2.871767,2.228 12.01464,8.063446 10.3742,0.363054c8.117506,7.732946 14.505559,-7.182598 21.250882,-10.271468c2.675549,-2.858554 8.493769,-5.883794 3.127851,-0.42712c-3.562271,6.955576 -15.647861,14.480033 -12.396473,21.391403c-2.943026,2.39275 5.937998,5.400022 -1.131665,4.494163c-4.188268,4.037446 5.615114,11.591272 6.397474,17.945598c-2.245575,4.353837 -10.796196,9.296598 -14.255138,9.140381c1.264211,-5.605576 -1.476419,-12.911805 -9.4813,-9.743294c4.484182,7.32725 10.546714,14.327087 14.345114,22.295337c3.712653,7.833174 9.732099,16.878903 17.651497,6.797598c5.047608,-6.425391 19.467351,-6.332381 15.506374,4.102489c-2.024875,10.246739 3.396313,23.77037 -7.020376,30.828675c-6.283909,10.813674 -13.250483,-4.02075 -8.313564,-9.632739c-1.257976,-1.603728 -2.231156,-2.735815 1.45001,-4.928011c-0.760102,-1.64437 10.593777,-7.830946 4.87146,-11.62712c-6.508186,6.590587 -16.031173,14.219218 -13.384622,24.016033c2.147965,6.565054 -15.567421,17.820229 -14.150799,6.924913c0.317314,-4.234283 7.086776,-12.440805 5.528541,-13.498055c-4.942329,8.281489 -11.973021,16.23762 -22.597115,18.696403c-8.837159,0.467674 -13.466415,6.821989 -9.269814,13.872163c0.802007,9.990413 -5.103198,19.03224 -6.462716,28.759316c2.527185,10.316848 17.91338,12.40162 20.001835,22.925587c3.5886,7.067902 -5.387903,6.023381 -9.570164,4.045696l0.000011,0l0,0l0,0.000011l0,-0.000011zm-21.880477,-30.778479c-1.295342,-4.663522 -3.961057,12.122881 -0.675077,3.213337l0.491914,-1.574065l0.183163,-1.639272l0,0z" id="svg_3"/>
   <text stroke="#333333" font-weight="bold" xml:space="preserve" text-anchor="start" font-family="'Palatino Linotype', 'Book Antiqua', Palatino, serif" font-size="24" id="svg_2" y="217" x="23.5" fill-opacity="null" stroke-opacity="null" stroke-width="0.5" fill="#ff0000">ANIMALS</text>
  </g>
  <g stroke="null" class="sprite_back" id="numbers">
   <rect stroke="#333333" fill="#ffff00" stroke-width="null" stroke-opacity="null" opacity="null" x="-20.499994" y="-7.000018" width="212.999988" height="253.000008" id="svg_1"/>
   <text stroke="#00ff00" fill="#00bf00" stroke-width="0.5" x="84.337586" y="249.169173" id="svg_4" font-size="20" font-family="'Palatino Linotype', 'Book Antiqua', Palatino, serif" text-anchor="start" xml:space="preserve" transform="matrix(15.408637087547106,0,0,8.774154964456166,-1289.890293093732,-2022.3869272435725) ">1</text>
   <text stroke="#333333" transform="matrix(1.2849492222288068,0,0,1.0869565439908901,3.0552161726489437,-10.173920039669895) " font-weight="bold" xml:space="preserve" text-anchor="start" font-family="'Palatino Linotype', 'Book Antiqua', Palatino, serif" font-size="24" id="svg_2" y="215" x="6.300005" fill-opacity="null" stroke-opacity="null" stroke-width="0.5" fill="#ff0000">NUMBERS</text>
  </g>
  <g class="sprite_back" id="family">
   <rect stroke="#333333" rx="10" id="svg_1" height="252.999996" width="216.000007" y="-9.000002" x="-22.5" stroke-opacity="null" stroke-width="null" fill="#00bfbf" opacity="null"/>
   <path id="svg_7" d="m164.71117,119.35977c-3.00908,-6.27009 -6.69478,-11.34474 -10.38992,-14.89241c-4.3116,3.63872 -9.56294,5.85217 -15.29364,5.85217c-5.73436,0 -10.99327,-2.22004 -15.29927,-5.85217c-3.69514,3.54766 -7.38081,8.62232 -10.40122,14.89241c-7.00497,14.55016 -7.77931,29.47707 -1.72917,33.34964c2.71026,1.74346 5.554,0.44186 8.48979,-2.81561c-0.51688,3.30291 -0.82325,6.88522 -0.82325,10.6343c0,16.64672 5.61223,30.13115 12.53077,30.13115c4.16688,0 6.2325,-4.91203 7.22294,-12.42967c0.99048,7.51764 3.05417,12.42967 7.21176,12.42967c6.92787,0 12.54008,-13.48443 12.54008,-30.13115c0,-3.74908 -0.30069,-7.33139 -0.82693,-10.6343c2.94517,3.25747 5.78322,4.55907 8.4991,2.81561c6.05961,-3.87257 5.2758,-18.79948 -1.73104,-33.34964l0,0zm-25.68918,-14.71687c11.64361,0 21.0825,-10.87909 21.0825,-24.2943s-9.43889,-24.29422 -21.0825,-24.29422c-11.64173,0 -21.08817,10.87682 -21.08817,24.29422s9.44643,24.2943 21.08817,24.2943zm14.40273,-49.86639c6.08398,2.58171 2.42267,-4.1173 2.42267,-8.6937s3.75529,-10.17297 -2.42267,-7.89662c-6.48434,2.39536 -11.74135,3.71221 -11.74135,8.2951s5.25701,5.54027 11.74135,8.29522zm-14.36325,-3.25957c3.853,0 1.70096,-2.24815 1.70096,-5.01827c0,-2.77226 2.15768,-5.01395 -1.70096,-5.01395s-1.84195,2.24817 -1.84195,5.01395c0,2.77659 -2.01111,5.01827 1.84195,5.01827zm-14.44597,3.25957c6.48434,-2.7485 11.7413,-3.71445 11.7413,-8.29522s-5.25696,-5.89974 -11.7413,-8.2951c-6.17797,-2.28284 -2.42458,3.31582 -2.42458,7.89662s-3.66505,11.27105 2.42458,8.6937z" stroke-opacity="null" stroke-width="null" stroke="#333333" fill="#ff007f"/>
   <path id="svg_8" d="m97.98081,114.60128c-3.87172,-7.1245 -8.6085,-12.89253 -13.35982,-16.92749c-5.54404,4.13586 -12.29639,6.65428 -19.65776,6.65428c-7.37583,0 -14.13789,-2.52333 -19.67216,-6.65428c-4.75131,4.03496 -9.49293,9.80299 -13.37415,16.92749c-9.00968,16.54105 -10.00052,33.50795 -2.21868,37.90724c3.48503,1.98174 7.13904,0.50466 10.91404,-3.20043c-0.66219,3.75673 -1.04889,7.82854 -1.04889,12.08754c0,18.92166 7.21644,34.24899 16.10991,34.24899c5.3604,0 8.01395,-5.58102 9.28993,-14.126c1.27126,8.54497 3.9248,14.126 9.26577,14.126c8.90809,0 16.12459,-15.32733 16.12459,-34.24899c0,-4.259 -0.38683,-8.33081 -1.06341,-12.08754c3.78458,3.70509 7.43378,5.18217 10.92849,3.20043c7.77704,-4.39929 6.77157,-21.3662 -2.23786,-37.90724l0,0zm-33.0271,-16.7281c14.96432,0 27.10117,-12.36326 27.10117,-27.61426s-12.13685,-27.6143 -27.10117,-27.6143c-14.96941,0 -27.11584,12.36571 -27.11584,27.6143s12.14643,27.61426 27.11584,27.61426z" stroke-opacity="null" stroke-width="null" stroke="#333333" fill="#00ff00"/>
   <text font-weight="bold" xml:space="preserve" text-anchor="start" font-family="'Palatino Linotype', 'Book Antiqua', Palatino, serif" font-size="24" id="svg_9" y="223" x="53.5" stroke-opacity="null" stroke-width="0.5" stroke="#333333" fill="#ff0000">FAMILY</text>
  </g>
 </g>
</svg>