<svg width="100" height="100" xmlns="http://www.w3.org/2000/svg">
<defs>

  <style><![CDATA[
    .sprite { display: none; }
    .sprite:target { display: inline;
 transform: scale(0.5)}

  ]]></style>

</defs>
    <g id="beginLearnWords" class="sprite">
  
  <path stroke="#000" id="svg_1" d="m50.647024,5.15916c-24.852753,0 -45.000014,20.371106 -45.000014,45.500008c0,25.128806 20.147265,45.500004 45.000014,45.500004c24.852749,0 44.999986,-20.371198 44.999986,-45.500004c0,-25.128902 -20.147237,-45.500008 -44.999986,-45.500008zm-7.229508,75.945621l-10.948844,-11.080117l19.156305,-19.367915l-19.156305,-19.367907l10.948844,-11.070534l30.107434,30.438441l-30.107434,30.448032z" fill-opacity="null" stroke-opacity="null" stroke-width="1.5" fill="#000000"/>
 </g>

 <g id="mute" class="sprite">

  <path id="svg_2" d="m11.467489,34.462357l0,28.531909l16.870222,0l25.254666,19.968l0.015012,-68.46791l-25.258419,19.968l-16.881481,0zm51.822919,-3.281025c-1.474972,-1.405637 -3.843183,-1.405637 -5.310648,0.007227c-1.463712,1.412864 -1.463712,3.700187 0.007506,5.116665l0,-0.007227c3.238932,3.122033 5.235586,7.403987 5.235586,12.162919c0,4.755318 -1.9929,9.022819 -5.22808,12.144851c-1.478725,1.405637 -1.478725,3.69296 -0.007506,5.113051c0.731856,0.704625 1.692652,1.058745 2.653448,1.058745c0.964549,0 1.925345,-0.354119 2.657201,-1.058745c4.586298,-4.408426 7.431154,-10.533247 7.427401,-17.257903c0.003753,-6.73911 -2.852362,-12.871158 -7.434907,-17.279583zm8.613383,-8.289286c-1.474972,-1.412864 -3.843183,-1.412864 -5.303142,0c-1.471218,1.412864 -1.471218,3.7038 0,5.109438c5.442007,5.243136 8.797286,12.455609 8.797286,20.455818c0,7.992982 -3.355279,15.201842 -8.78978,20.448591c-1.471218,1.409251 -1.471218,3.696573 0,5.109438c0.731856,0.704625 1.692652,1.058745 2.657201,1.058745c0.960796,0 1.921591,-0.354119 2.653448,-1.058745c6.78562,-6.536756 10.992854,-15.592096 10.985348,-25.558029c0.003753,-9.97316 -4.203481,-19.035727 -11.00036,-25.565256zm8.178023,-7.873737c-1.474972,-1.412864 -3.846936,-1.405637 -5.306895,0.007227c-1.467465,1.405637 -1.467465,3.696573 0.007506,5.105824l-0.007506,0c7.539995,7.259449 12.190096,17.247062 12.190096,28.325942c0,11.068039 -4.650101,21.059266 -12.182589,28.322328c-1.467465,1.409251 -1.467465,3.696573 0.007506,5.113051c0.728103,0.701012 1.688899,1.051518 2.649694,1.051518s1.925345,-0.354119 2.657201,-1.058745c8.868595,-8.549455 14.378158,-20.390776 14.370652,-33.428153c0.007506,-13.048217 -5.502057,-24.893151 -14.385664,-33.438993z" stroke-opacity="null" stroke-width="1.5" stroke="#000" fill="#000000"/>
  <line stroke-linecap="null" stroke-linejoin="null" id="svg_3" y2="4" x2="96.5" y1="89" x1="7.5" stroke-width="5" stroke="#ff0000" fill="none"/>
  <line transform="rotate(-89.3644027709961 52,46.5) " stroke-linecap="null" stroke-linejoin="null" id="svg_4" y2="4" x2="96.5" y1="89" x1="7.5" stroke-width="5" stroke="#ff0000" fill="none"/>
 </g>
    <g id="vibro" class="sprite">
  
  <path stroke="#000" transform="rotate(-143.39830017089844 43.03068542480469,49.84675216674805) " id="svg_1" d="m47.360004,80.46107c2.151237,-1.004706 3.915734,-1.940305 0.573996,-1.967686c-2.95123,0.504715 -10.585797,-3.205109 -4.467006,-5.028576c3.827997,-1.901847 12.53967,2.490988 12.586107,-5.02303c-0.692488,-4.708991 -11.929807,-1.032246 -8.233094,-7.347624c4.07125,-2.118273 12.144206,2.872652 13.509935,-3.682121c-1.25195,-6.355632 -9.082546,-2.299494 -13.018404,-4.055975c-3.815504,1.001443 -4.820315,-5.382865 -0.538085,-4.419232c9.899342,-0.679586 19.867732,0.317786 29.73297,-1.069078c1.593568,-1.123188 2.771533,-8.03242 0.760516,-8.497699c-14.370608,-0.378902 -28.766612,-0.030637 -43.114473,-1.160831c-5.154713,-0.068122 -1.216229,-7.072042 2.592811,-5.427193c3.628329,-1.511865 5.066246,-5.476086 7.7292,-9.390445c1.360809,-8.556039 -5.179384,-5.380421 -7.850354,-2.876726c-2.982525,2.488049 -8.11258,7.652537 -10.834027,10.363695c-2.385622,2.195031 -7.881918,4.630766 -11.225368,7.573173c-2.857862,1.292344 -5.985225,0.648945 -8.79217,0.881009c0,11.592482 0,23.184794 0,34.777272c7.941317,4.400006 16.297787,8.264975 25.101802,7.822844c5.157337,-0.026722 10.462809,0.218709 15.485641,-1.471773l0.000003,-0.000003zm-32.718593,3.718138c-4.053926,-1.98203 -8.100499,-3.989317 -12.117695,-6.089339c0.192244,-14.476542 0.384485,-28.953246 0.576717,-43.429788c3.207364,-0.154989 7.966561,1.869414 10.252694,-1.111451c6.146388,-2.510213 10.136942,-8.062246 15.52512,-12.229362c3.791831,-3.791312 6.820567,-5.085286 10.737017,-7.960552c2.974718,-1.750452 4.585385,-0.856567 7.935095,-0.093383c1.46096,3.042144 3.27463,4.614472 2.3335,10.409815c-1.963804,1.256983 -4.512295,9.705299 -0.653095,9.77244c10.744043,1.310106 21.661082,-0.531281 32.320609,1.758435c2.654308,4.572585 3.160514,14.845341 -1.697505,17.745053c-4.649028,1.710354 -9.550765,0.861939 -14.327205,1.067607c-0.00029,4.325852 0.561763,9.846263 -3.211578,12.019292c-2.786208,4.624088 -2.982142,11.417127 -7.471744,14.800692c-3.775891,4.923294 -9.150968,6.444133 -14.393836,6.281813c-8.597015,0.148301 -17.646149,1.197 -25.808091,-2.94095l0,-0.000328l-0.000003,0.000007z" fill-opacity="null" stroke-opacity="null" stroke-width="1.5" fill="#000000"/>
  <line stroke-linecap="null" stroke-linejoin="null" id="svg_2" y2="98.5" x2="97.5" y1="2.5" x1="3.5" fill-opacity="null" stroke-width="5" stroke="#ff0000" fill="none"/>
  <line stroke-linecap="null" stroke-linejoin="null" id="svg_5" y2="98.5" x2="4.5" y1="2.5" x1="98.5" fill-opacity="null" stroke-width="5" stroke="#ff0000" fill="none"/>
 </g>
</svg>