<svg width="300" height="300" xmlns="http://www.w3.org/2000/svg">
 <!-- Created with Method Draw - http://github.com/duopixel/Method-Draw/ -->

 <g>
  <title>background</title>
  <rect x="-1" y="-1" width="302" height="302" id="canvas_background" fill="none"/>
 </g>
 <g>
  <title>Layer 1</title>
  <path fill="#fcfc0c" stroke-width="2" stroke-opacity="null" d="m298.232542,151.20501l-59.718102,21.387396l0,-42.752014l59.718102,21.364618zm-43.360387,-105.353991l-27.206296,57.648028l-30.023081,-30.247562l57.229377,-27.400466zm-104.6396,-43.62892l21.233354,60.130697l-42.478021,0l21.244667,-60.130697zm-104.650912,43.62892l57.252001,27.400466l-30.034393,30.247562l-27.217608,-57.648028zm-43.349076,105.353991l59.729415,-21.364618l0,42.752014l-59.729415,-21.387396zm43.349076,105.353991l27.217608,-57.62525l30.034393,30.236174l-57.252001,27.389076l0,0zm104.650912,43.663086l-21.244667,-60.142085l42.478021,0l-21.233354,60.142085zm104.6396,-43.663086l-57.240689,-27.377688l30.02308,-30.236174l27.217609,57.613862zm-178.633938,-105.353991l0,0c0,-41.134862 33.133988,-74.491455 74.00565,-74.491455c40.86035,0 74.00565,33.356593 74.00565,74.491455c0,41.146252 -33.1453,74.502844 -74.00565,74.502844c-40.882974,0 -74.00565,-33.356592 -74.00565,-74.502844l0,0z" id="svg_2" stroke="#000"/>
  <path fill="#ffffff" stroke-width="2" stroke-opacity="null" d="m142.271635,169.098673l11.029939,0l0,0c6.091668,0 11.029939,13.000616 11.029939,29.03769c0,16.037076 -4.938271,29.03769 -11.029939,29.03769l-11.029939,0l0,-58.07538z" id="svg_3" transform="rotate(89.63887786865234 153.30157470703122,198.13636779785156) " stroke="#000"/>
  <ellipse fill="#ffffff" stroke="#000" stroke-width="2" stroke-opacity="null" cx="113.5" cy="139.5" id="svg_4" rx="14" ry="10"/>
  <ellipse fill="#ffffff" stroke="#000" stroke-width="2" stroke-opacity="null" cx="187.5" cy="139.5" id="svg_5" rx="14" ry="10"/>
  <ellipse fill="#00007f" stroke-width="2" stroke-opacity="null" cx="114" cy="139" id="svg_7" rx="5.5" ry="5.5" stroke="#000"/>
  <ellipse fill="#00007f" stroke-width="2" stroke-opacity="null" cx="187" cy="139" id="svg_9" rx="5.5" ry="5.5" stroke="#000"/>
 </g>
</svg>